/* XPM */
static char *_747fba755ae4e57aabd39ed0f0f0adbCWrTlAjrs1L6d6Bg[] = {
/* columns rows colors chars-per-pixel */
"32 32 79 1 ",
"  c None",
". c #750070",
"X c #760171",
"o c #780473",
"O c #780573",
"+ c #780574",
"@ c #7A0A76",
"# c #7C0B78",
"$ c #7B0C78",
"% c #7B0D78",
"& c #7C0C78",
"* c #7D0D79",
"= c #7E0E7A",
"- c #80127B",
"; c #84137A",
": c #80117D",
"> c #81127D",
", c #81177D",
"< c #82187D",
"1 c #841A81",
"2 c #851B81",
"3 c #841982",
"4 c #8D1F80",
"5 c #872085",
"6 c #8F2181",
"7 c #882387",
"8 c #8D2C89",
"9 c #8F308B",
"0 c #8D338F",
"q c #983A8F",
"w c #9F43A0",
"e c #A044A1",
"r c #A145A2",
"t c #A349A4",
"y c #A44AA4",
"u c #A64EA7",
"i c #A64FA7",
"p c #A850A6",
"a c #AA54A9",
"s c #A954AA",
"d c #BD6BAE",
"f c #BE6DAF",
"g c #AF60B0",
"h c #B46BB5",
"j c #C174B3",
"k c #C57EB8",
"l c #CA87BD",
"z c #C68EC7",
"x c #D19CD2",
"c c #EF9DC3",
"v c #D5A2CC",
"b c #D6A3CD",
"n c #FFAEC9",
"m c #FFB3CC",
"M c #E0B3DF",
"N c #FFBDD3",
"B c #C8BFE7",
"V c #D8B3E8",
"C c #DAB7E9",
"Z c #DBB8EA",
"A c #DDBDEB",
"S c #E4BAE3",
"D c #E6BEE6",
"F c #FFC3D7",
"G c #FFCDDE",
"H c #CCC3E9",
"J c #CFC7EA",
"K c #D3CBEC",
"L c #D6CFED",
"P c #E0C1ED",
"I c #E2C5EC",
"U c #E2C6EE",
"Y c #E9C5EB",
"T c #E8C6EE",
"R c #E6C8ED",
"E c #EAC9EF",
"W c #EBC9EF",
"Q c #ECCBEF",
"! c #FFE6EA",
/* pixels */
"!!!!!!!!!!!!!!!!!!!!!!!!!!!!!!!!",
"!!!!!!!!!!!!!!!!!!!!!!!!!!!!!!!!",
"!!!!!!!!!!!!!!!!!!!!!!! !3t:- !!",
"!!!!!!!!!!!!!!!!!!!!!!!!3+8..3 !",
"!!!!!!!!!!!!!!!!!!!!!!!!t9.!.t!!",
"!!!!!!!!!!!!!!!!!!!!!!!!t.!!.t!!",
"!!!!!!!!!!!!!!!!!!!!!!!!t.!!.t!!",
"!!!!!!!!!!!!!!!!!!!!!!!!t.!!.t!!",
"!!!!!!!!!!!!!!!!.......!t.!!.t!!",
"!!!!......!!!!!!.vldl:!!g<!!,g!!",
"!!!!!.zLB0.!!!!.vdki*O!!!!!!!!!!",
"!!!!!q*hLB%.!!!.ddsr.!!!!!!!!!!!",
"!!!!!!.shBB@.!.DMftO!!!!!!!!!!!!",
"!!!!!!!.tHBH.!.Qdyr.!!!!!!!!!!!!",
"!!!!!!!.shHK%.SYyr.!!!!!!!!!!!!!",
"!!!!!!!!.shBBxYpr.!!!!!!!!!!!!!!",
"!!!!!!!!!.tHBljwO.!!!!!!!!!!!!!!",
"!!!!!!!!!.shJkPP.!!!!!!!!!!!!!!!",
"!!!!!!!!!!.tGUUV.!!!!!!!!!!!!!!!",
"!!!!!!!!!.hinGQR*.!!!!!!!!!!!!!!",
"!!!!!!!! .tNnmWQZ.!!!!!!!!!!!!!!",
"!!!!!!!!.hcn6.VWW#.!!!!!!!!!!!!!",
"!!!!!!!!.tnn..7VWT.!!!!!!!!!!!!!",
"!!!!!!!.hcnn.!.VVP#.!!!!!!!!!!!!",
"!!!!!!.hcnn4.!.VZVV..!!!!!!!!!!!",
"!!!!!!.tnnn.!!.5PAZP.!!!!!!!!!!!",
"!!!!!.hsnn4.!!!.CVVZ.!!!!!!!!!!!",
"!!!! .gFn6.!!!!.......!!!!!!!!!!",
"!!!!.....;!!!!!!!!!!!!!!!!!!!!!!",
"!!!!!!!!!!!!!!!!!!!!!!!!!!!!!!!!",
"!!!!!!!!!!!!!!!!!!!!!!!!!!!!!!!!",
"!!!!!!!!!!!!!!!!!!!!!!!!!!!!!!!!"
};
